<svg width="67" height="13" viewBox="0 0 67 13" fill="none" xmlns="http://www.w3.org/2000/svg">
<path d="M5.77121 0.453334C5.83826 0.317273 5.94206 0.202699 6.07086 0.122581C6.19966 0.0424624 6.34832 0 6.5 0C6.65168 0 6.80034 0.0424624 6.92914 0.122581C7.05794 0.202699 7.16174 0.317273 7.22879 0.453334L8.79685 3.63009L12.3043 4.14032C12.4544 4.16212 12.5953 4.22547 12.7113 4.32321C12.8272 4.42096 12.9134 4.5492 12.9603 4.69342C13.0071 4.83765 13.0126 4.9921 12.9763 5.1393C12.9399 5.28651 12.863 5.4206 12.7544 5.5264L10.2162 7.99956L10.8158 11.4932C10.8414 11.6426 10.8247 11.7962 10.7676 11.9366C10.7105 12.077 10.6152 12.1986 10.4925 12.2877C10.3699 12.3768 10.2248 12.4298 10.0736 12.4408C9.92236 12.4517 9.77113 12.4201 9.63695 12.3495L6.50081 10.7002L3.36305 12.3495C3.22883 12.4199 3.0776 12.4514 2.92645 12.4403C2.77529 12.4293 2.63024 12.3761 2.50769 12.287C2.38514 12.1978 2.28997 12.0761 2.23294 11.9357C2.17591 11.7953 2.15929 11.6417 2.18497 11.4924L2.78376 7.99956L0.245602 5.5264C0.136972 5.4206 0.0601178 5.28651 0.0237341 5.1393C-0.0126497 4.9921 -0.00711101 4.83765 0.0397235 4.69342C0.086558 4.5492 0.172819 4.42096 0.288748 4.32321C0.404677 4.22547 0.545647 4.16212 0.69571 4.14032L4.20315 3.6309L5.77121 0.452521V0.453334Z" fill="#FEC600"/>
<path d="M41.7712 0.453334C41.8383 0.317273 41.9421 0.202699 42.0709 0.122581C42.1997 0.0424624 42.3483 0 42.5 0C42.6517 0 42.8003 0.0424624 42.9291 0.122581C43.0579 0.202699 43.1617 0.317273 43.2288 0.453334L44.7969 3.63009L48.3043 4.14032C48.4544 4.16212 48.5953 4.22547 48.7113 4.32321C48.8272 4.42096 48.9134 4.5492 48.9603 4.69342C49.0071 4.83765 49.0126 4.9921 48.9763 5.1393C48.9399 5.28651 48.863 5.4206 48.7544 5.5264L46.2162 7.99956L46.8158 11.4932C46.8414 11.6426 46.8247 11.7962 46.7676 11.9366C46.7105 12.077 46.6152 12.1986 46.4925 12.2877C46.3699 12.3768 46.2248 12.4298 46.0736 12.4408C45.9224 12.4517 45.7711 12.4201 45.6369 12.3495L42.5008 10.7002L39.3631 12.3495C39.2288 12.4199 39.0776 12.4514 38.9264 12.4403C38.7753 12.4293 38.6302 12.3761 38.5077 12.287C38.3851 12.1978 38.29 12.0761 38.2329 11.9357C38.1759 11.7953 38.1593 11.6417 38.185 11.4924L38.7838 7.99956L36.2456 5.5264C36.137 5.4206 36.0601 5.28651 36.0237 5.1393C35.9874 4.9921 35.9929 4.83765 36.0397 4.69342C36.0866 4.5492 36.1728 4.42096 36.2887 4.32321C36.4047 4.22547 36.5456 4.16212 36.6957 4.14032L40.2031 3.6309L41.7712 0.452521V0.453334Z" fill="#FEC600"/>
<path d="M23.7712 0.453334C23.8383 0.317273 23.9421 0.202699 24.0709 0.122581C24.1997 0.0424624 24.3483 0 24.5 0C24.6517 0 24.8003 0.0424624 24.9291 0.122581C25.0579 0.202699 25.1617 0.317273 25.2288 0.453334L26.7969 3.63009L30.3043 4.14032C30.4544 4.16212 30.5953 4.22547 30.7113 4.32321C30.8272 4.42096 30.9134 4.5492 30.9603 4.69342C31.0071 4.83765 31.0126 4.9921 30.9763 5.1393C30.9399 5.28651 30.863 5.4206 30.7544 5.5264L28.2162 7.99956L28.8158 11.4932C28.8414 11.6426 28.8247 11.7962 28.7676 11.9366C28.7105 12.077 28.6152 12.1986 28.4925 12.2877C28.3699 12.3768 28.2248 12.4298 28.0736 12.4408C27.9224 12.4517 27.7711 12.4201 27.6369 12.3495L24.5008 10.7002L21.3631 12.3495C21.2288 12.4199 21.0776 12.4514 20.9264 12.4403C20.7753 12.4293 20.6302 12.3761 20.5077 12.287C20.3851 12.1978 20.29 12.0761 20.2329 11.9357C20.1759 11.7953 20.1593 11.6417 20.185 11.4924L20.7838 7.99956L18.2456 5.5264C18.137 5.4206 18.0601 5.28651 18.0237 5.1393C17.9874 4.9921 17.9929 4.83765 18.0397 4.69342C18.0866 4.5492 18.1728 4.42096 18.2887 4.32321C18.4047 4.22547 18.5456 4.16212 18.6957 4.14032L22.2031 3.6309L23.7712 0.452521V0.453334Z" fill="#FEC600"/>
<path d="M59.7712 0.453334C59.8383 0.317273 59.9421 0.202699 60.0709 0.122581C60.1997 0.0424624 60.3483 0 60.5 0C60.6517 0 60.8003 0.0424624 60.9291 0.122581C61.0579 0.202699 61.1617 0.317273 61.2288 0.453334L62.7969 3.63009L66.3043 4.14032C66.4544 4.16212 66.5953 4.22547 66.7113 4.32321C66.8272 4.42096 66.9134 4.5492 66.9603 4.69342C67.0071 4.83765 67.0126 4.9921 66.9763 5.1393C66.9399 5.28651 66.863 5.4206 66.7544 5.5264L64.2162 7.99956L64.8158 11.4932C64.8414 11.6426 64.8247 11.7962 64.7676 11.9366C64.7105 12.077 64.6152 12.1986 64.4925 12.2877C64.3699 12.3768 64.2248 12.4298 64.0736 12.4408C63.9224 12.4517 63.7711 12.4201 63.6369 12.3495L60.5008 10.7002L57.3631 12.3495C57.2288 12.4199 57.0776 12.4514 56.9264 12.4403C56.7753 12.4293 56.6302 12.3761 56.5077 12.287C56.3851 12.1978 56.29 12.0761 56.2329 11.9357C56.1759 11.7953 56.1593 11.6417 56.185 11.4924L56.7838 7.99956L54.2456 5.5264C54.137 5.4206 54.0601 5.28651 54.0237 5.1393C53.9874 4.9921 53.9929 4.83765 54.0397 4.69342C54.0866 4.5492 54.1728 4.42096 54.2887 4.32321C54.4047 4.22547 54.5456 4.16212 54.6957 4.14032L58.2031 3.6309L59.7712 0.452521V0.453334Z" fill="#FEC600"/>
</svg>
