<svg width="133" height="49" viewBox="0 0 133 49" fill="none" xmlns="http://www.w3.org/2000/svg">
<path fill-rule="evenodd" clip-rule="evenodd" d="M18.3792 2.39211C18.2357 2.24524 18.1796 2.11242 18.1524 1.91623C18.1272 1.73389 18.1509 1.51965 18.2432 1.27478C18.5789 0.384908 19.8826 -0.466781 21.1374 0.295522C20.5328 0.511269 20.3618 0.999816 20.2041 1.45022C20.1245 1.67747 20.0484 1.89501 19.9216 2.0629C19.5437 2.56354 19.1516 2.74567 18.7628 2.62544C18.7273 2.61453 18.5233 2.53962 18.3792 2.39211ZM46.1861 40.3156C49.1355 36.7489 51.1354 32.4945 52 27.9477C51.9847 28.0208 49.9901 37.3612 39.7856 38.1015C30.693 38.7607 28.1859 31.994 27.197 29.3249C27.0717 28.9867 26.9708 28.7142 26.8839 28.5311C26.8438 28.4465 26.6728 27.8384 26.8344 27.3749C27.0094 26.8732 27.5228 26.515 27.608 26.4601C27.8552 26.2998 28.0977 26.1334 28.3355 25.9609C29.4178 25.177 30.4024 24.2662 31.268 23.248C31.3992 23.0936 31.6577 22.868 31.9 22.6773C32.1585 22.4734 32.8008 22.343 32.9769 22.3491C34.0224 22.3841 35.0662 22.2394 36.0628 21.9211C36.7175 21.7118 37.3448 21.425 37.9313 21.0667C38.5089 20.7118 39.0439 20.292 39.526 19.8155C39.7636 19.5807 39.9891 19.3339 40.2014 19.076C40.3073 18.9478 40.4097 18.8173 40.5086 18.6847L40.5273 18.66L40.5319 18.6537L40.5342 18.6505L40.5239 18.6621L40.5288 18.656C40.5362 18.647 40.5443 18.6377 40.5526 18.6283L40.564 18.6153C40.5886 18.5869 40.6139 18.559 40.6398 18.5313C40.6916 18.4759 40.7449 18.4207 40.799 18.3662C41.0166 18.1484 41.2487 17.9402 41.4902 17.7426L41.5419 17.7006C41.553 17.8509 41.6047 17.9869 41.696 18.1082C41.718 18.138 41.8574 18.3052 42.045 18.3906C42.2321 18.476 42.3756 18.4842 42.5695 18.4437C42.7498 18.4057 42.9434 18.3111 43.1428 18.1418C43.589 17.7621 43.8973 17.0416 43.8016 16.3281C43.8353 16.3135 43.869 16.2991 43.9028 16.2849C44.4903 16.0383 45.1036 15.858 45.7312 15.7476C45.0875 15.7884 44.4503 15.901 43.8316 16.0833L43.7582 16.1052C43.6633 15.7379 43.4522 15.3821 43.0878 15.0867C43.0888 15.7283 42.6865 16.0547 42.3157 16.3555C42.1287 16.5072 41.9497 16.6524 41.8345 16.8283C41.8046 16.8738 41.7771 16.9187 41.7518 16.9628C41.5565 17.0721 41.3642 17.1877 41.1757 17.3101C40.8999 17.4891 40.6316 17.6801 40.3718 17.8878C40.307 17.9398 40.2426 17.9932 40.1786 18.0479C40.1465 18.075 40.1146 18.1029 40.0825 18.1318C40.0663 18.1463 40.0503 18.1608 40.0336 18.1765L40.0201 18.1893L40.0166 18.193L40.012 18.1982L40.0118 18.1984L40.0116 18.1986L40.0042 18.2069L40.0017 18.2097L39.9968 18.2149L39.9769 18.2359C39.871 18.3489 39.7628 18.459 39.6523 18.5662C39.432 18.7797 39.2009 18.9817 38.9599 19.1715C38.7681 19.3231 38.5695 19.4657 38.3648 19.5987C38.3975 19.4706 38.4268 19.3384 38.4565 19.2042L38.4566 19.2038C38.6302 18.4197 38.8185 17.5693 39.7855 17.088C37.5374 16.0666 35.5286 17.7496 35.1454 19.3023C35.0401 19.731 35.0434 20.0938 35.1219 20.3934C35.1588 20.5339 35.2024 20.6529 35.2622 20.7606C34.8385 20.8187 34.4104 20.8412 33.9824 20.8277C33.8474 20.8233 33.5616 20.7427 33.4488 20.5759C33.3166 20.3805 33.3726 20.0859 33.4441 19.9412C34.0224 18.7686 34.4659 17.5343 34.7661 16.2618L34.7551 16.2952L34.7663 16.2604L34.7786 16.2228L34.8042 16.1469L34.8573 15.9941C34.8936 15.8918 34.9306 15.7897 34.9683 15.6875C35.0443 15.4833 35.1228 15.2795 35.2038 15.0761C35.3662 14.6696 35.537 14.2658 35.7162 13.8646C36.0372 13.1464 36.3828 12.4375 36.753 11.7406C36.7708 11.7483 36.789 11.7555 36.8077 11.7621C36.8425 11.7745 37.0511 11.8364 37.2546 11.8037C37.458 11.7712 37.5818 11.6988 37.7205 11.5573C37.8495 11.426 37.9584 11.2401 38.0306 10.9885C38.1399 10.6069 38.1098 10.1302 37.9315 9.69413C38.0306 9.53544 38.1312 9.37759 38.2332 9.22066C38.7152 8.47976 39.2295 7.75796 39.7797 7.06175C39.171 7.70739 38.5929 8.38429 38.044 9.08533C37.9592 9.19394 37.875 9.30307 37.7915 9.41273C37.5044 8.9291 37.0097 8.54313 36.2928 8.4754C36.6491 9.00918 36.4947 9.50321 36.3525 9.95865C36.2807 10.1885 36.2119 10.4086 36.2135 10.619C36.2159 10.9501 36.2742 11.2122 36.3853 11.406C36.0739 11.883 35.7739 12.3676 35.4854 12.8598C35.2289 11.9514 34.5025 11.0962 33.2605 10.9786C33.7215 11.6695 33.5218 12.3089 33.3377 12.8983L33.3377 12.8983C33.2448 13.1956 33.1559 13.4802 33.1577 13.7523C33.1632 14.5639 33.4305 15.0559 33.9265 15.2313C33.9532 15.2411 34.0572 15.2727 34.1918 15.2886L34.1639 15.3474C34.1156 15.4494 34.068 15.5521 34.021 15.6554L33.9511 15.8113L33.9163 15.8904L33.8991 15.9305L33.8823 15.9706L33.8701 16.0067C33.6611 16.64 33.4133 17.2593 33.1285 17.8611C33.0159 16.4547 32.0428 14.8947 30.1083 14.7118C30.7081 15.6105 30.4483 16.442 30.2087 17.2085C30.0879 17.5951 29.9723 17.9651 29.9747 18.319C29.9818 19.3744 30.3287 20.0144 30.9745 20.2425C31.0308 20.2623 31.3536 20.3583 31.6805 20.319C31.0782 21.1505 30.3922 21.916 29.6342 22.6038C29.7151 20.6736 28.4701 18.2671 25.7261 18.0078C26.4999 19.1674 26.1647 20.2405 25.8556 21.2297C25.6997 21.7286 25.5505 22.2062 25.5536 22.6628C25.5606 23.6947 25.8192 24.4189 26.3067 24.8372C26.1938 24.876 26.0775 24.9082 25.9609 24.9294C25.6073 24.9925 25.2428 24.944 24.918 24.7907C24.3582 24.5225 23.8093 24.007 23.6356 23.8196C23.5627 23.7411 23.4893 23.6629 23.4155 23.585L23.3043 23.469L23.2079 23.3695C23.0811 23.2361 22.957 23.0989 22.8357 22.9581C22.3457 22.3828 21.9066 21.7661 21.5232 21.1149C21.1294 20.4468 20.7795 19.7537 20.4756 19.0402C20.1665 18.3204 19.8948 17.5775 19.6547 16.8208C19.4147 16.0642 19.2057 15.2929 19.0219 14.5127C18.9262 14.1017 18.8364 13.6887 18.7525 13.2737C18.7309 13.1658 18.7441 12.9052 18.8503 12.7057C18.9497 12.5191 19.1407 12.3909 19.1763 12.37C19.3397 12.2776 19.4992 12.1804 19.6547 12.0783C19.9934 11.855 20.3156 11.6079 20.6189 11.339C20.7462 11.2439 20.8711 11.1264 20.9933 10.9862C21.3385 10.6409 21.6541 10.2672 21.9368 9.86903C22.2392 9.44278 22.5043 8.99124 22.7291 8.51942C22.8409 8.28456 22.9429 8.04675 23.035 7.80601C23.0804 7.68571 23.124 7.56471 23.166 7.44301C23.1867 7.38216 23.2067 7.3211 23.226 7.26025L23.2549 7.16834L23.2583 7.15681C23.2597 7.15352 23.2609 7.15016 23.2619 7.14673V7.144L23.2631 7.13918L23.269 7.1182L23.2812 7.07455C23.3479 6.84018 23.4222 6.60454 23.5002 6.371C23.5786 6.13712 23.6619 5.90477 23.7503 5.67396C23.9255 5.21143 24.1255 4.75866 24.3494 4.31763C24.4631 4.09752 24.5836 3.88056 24.7149 3.67074C24.8459 3.45887 24.9904 3.25562 25.1474 3.06224C24.9672 3.23643 24.7985 3.42202 24.6421 3.61786C24.4845 3.81426 24.3364 4.01779 24.1954 4.22636C23.9152 4.64544 23.6578 5.07929 23.4243 5.52603C23.3068 5.74907 23.1937 5.97464 23.0854 6.20314C22.9771 6.43164 22.8731 6.6614 22.7742 6.89704L22.7558 6.94173L22.7465 6.96439L22.744 6.97069V6.97156L22.7411 6.97824L22.7035 7.06112L22.6795 7.11381L22.654 7.16846C20.6295 6.50294 18.8253 7.99341 18.4214 9.42128C18.3015 9.84492 18.2925 10.2075 18.3609 10.5099C18.4195 10.7686 18.503 10.9569 18.6672 11.1376C18.6285 11.1437 18.5924 11.1436 18.5622 11.1339C18.3888 11.0785 18.3305 10.8216 18.3156 10.7167C18.27 10.3947 18.2273 10.072 18.1874 9.74859C17.9897 8.14048 17.8611 6.51893 17.7799 4.89214C17.7392 4.07864 17.7107 3.26409 17.6899 2.44849C17.6742 1.83364 17.6641 1.21818 17.6539 0.602763C17.6506 0.401837 17.6473 0.200915 17.6437 1.89747e-05C17.6297 0.188697 17.6155 0.377374 17.6013 0.566067C17.5541 1.19157 17.507 1.81725 17.4656 2.44367C17.4099 3.25933 17.3651 4.07612 17.3311 4.89403C17.2629 6.53005 17.2413 8.17153 17.2923 9.81699C17.3433 11.4625 17.4648 13.1121 17.6956 14.7593C17.8112 15.5826 17.9547 16.4054 18.1341 17.2249C18.1622 17.3538 18.191 17.4793 18.2216 17.6112C18.2522 17.7432 18.3016 18.1081 18.1192 18.2468C17.9459 18.3786 17.5629 18.3067 17.4782 18.2908L17.4675 18.2888C17.1061 18.2226 16.7493 18.1344 16.3991 18.0245C16.5387 17.6326 16.5229 17.1277 16.3431 16.5109C16.2438 16.1705 16.0263 15.8486 15.7992 15.5124C15.3497 14.8472 14.8624 14.126 15.1781 13.0945C13.657 13.7122 13.0759 15.0746 13.1111 16.3143C12.921 16.1752 12.7344 16.031 12.5517 15.882C12.485 15.8279 12.4188 15.7733 12.353 15.718C12.5414 15.4122 12.5788 14.9795 12.4541 14.422C12.3947 14.1569 12.2444 13.8998 12.0873 13.6312C11.7755 13.098 11.4371 12.5193 11.7314 11.7421C10.7316 12.0742 10.208 12.8369 10.0417 13.6341C9.83078 13.4603 9.61757 13.2895 9.40173 13.122C9.3619 13.0911 9.322 13.0603 9.28201 13.0296C9.27748 12.9217 9.26304 12.8055 9.23848 12.681C9.19775 12.4746 9.08638 12.2728 8.97005 12.0621L8.97003 12.062C8.73939 11.6442 8.48927 11.191 8.73153 10.5966C8.05564 10.8024 7.65064 11.2657 7.46137 11.785C7.22422 11.6467 6.98119 11.5188 6.73294 11.4014C6.57263 11.3263 6.4096 11.2589 6.2432 11.2004C6.07777 11.141 5.90792 11.0948 5.73521 11.0621C5.90046 11.1169 6.06106 11.1849 6.2155 11.2652C6.36994 11.3441 6.51933 11.432 6.66496 11.5254C6.91333 11.6865 7.15381 11.8593 7.38559 12.0434C7.27573 12.5298 7.33856 13.0355 7.53195 13.4066C7.65302 13.6386 7.79696 13.7992 7.94972 13.902C8.1138 14.0113 8.24977 14.0577 8.4554 14.0489C8.66145 14.0402 8.85323 13.9379 8.88492 13.919C8.99352 13.854 9.08054 13.7692 9.14522 13.6646C9.34669 13.8729 9.54403 14.0854 9.73871 14.2987C9.82919 14.3978 9.91913 14.4977 10.0082 14.5982C10.0497 14.8987 10.1395 15.1793 10.2702 15.4156C10.4341 15.7118 10.6254 15.915 10.8264 16.043C11.0012 16.1542 11.1507 16.2118 11.3423 16.2203C11.4858 16.3855 11.633 16.5482 11.7837 16.7083C12.2832 17.2418 12.8216 17.7376 13.3943 18.1916C13.9789 18.655 14.6039 19.0651 15.2618 19.4168C15.9369 19.7783 16.6493 20.0655 17.3863 20.2735C17.6689 20.3522 17.9576 20.4189 18.2514 20.4708C18.3057 20.4806 18.6876 20.5729 18.9791 20.7759C19.2042 20.9328 19.3526 21.1921 19.3964 21.2971C19.5041 21.5537 19.6183 21.8088 19.7389 22.0621C20.1113 22.8445 24.5494 36.216 16.9509 40.2151C10.7878 43.2687 4.28782 41.2852 0.128628 34.7843C0.131948 34.8085 0.133423 34.8328 0.133036 34.8571C2.41846 39.5295 5.97378 43.4636 10.3917 46.2088C14.0097 48.4564 18.3338 48.3966 22.855 48.3342H22.8553H22.8555H22.8558H22.8561H22.8565H22.8568H22.8571H22.8574H22.8577H22.858H22.8583H22.8587H22.859H22.8593H22.8596H22.86H22.8603H22.8606H22.8609H22.8613H22.8616H22.862H22.8623H22.8627H22.863H22.8634H22.8638H22.8641C23.6109 48.3238 24.363 48.3134 25.1182 48.3134C33.6804 48.3134 41.1293 46.4394 46.1861 40.3156ZM0 37.0596C0.0425243 37.1277 0.0853291 37.1955 0.128414 37.2629C0.12397 37.2215 0.110083 37.1816 0.087822 37.1463C0.0655613 37.1111 0.0355186 37.0814 0 37.0596ZM29.7911 27.9508C29.5206 28.284 29.3924 28.5686 29.3714 29.0153C29.3487 29.4618 29.5321 29.898 29.5665 29.9698C29.9512 30.7661 30.8196 31.1203 32.1753 30.9801C32.63 30.9331 33.0886 30.7324 33.5676 30.5227C34.5168 30.1072 35.5461 29.6567 36.7833 30.2982C36.1373 27.177 32.8562 26.3633 30.9451 27.1461C30.4193 27.3616 30.0428 27.6409 29.7911 27.9508ZM16.7264 11.6591C16.6529 11.9837 16.54 12.1975 16.2782 12.4244C16.0163 12.6512 15.663 12.7475 15.6021 12.7609C14.9328 12.907 14.3012 12.5457 13.7393 11.6522C13.5509 11.3527 13.4542 10.9772 13.3533 10.5849C13.1532 9.80719 12.9361 8.96357 11.9532 8.51529C14.166 7.4181 16.2301 9.03062 16.6657 10.5705C16.7855 10.9942 16.7948 11.357 16.7264 11.6591ZM16.2633 7.53499C16.4695 7.36713 16.561 7.20472 16.6248 6.95671C16.684 6.7259 16.685 6.44683 16.6023 6.11866C16.3019 4.92516 14.751 3.63997 13.0258 4.43416C13.7713 4.80042 13.9194 5.45362 14.0559 6.05586C14.1248 6.35964 14.1907 6.65046 14.3289 6.88494C14.741 7.5843 15.2183 7.87596 15.736 7.77839C15.7832 7.76958 16.0568 7.70348 16.2633 7.53499ZM16.9347 3.06572C16.9077 3.2617 16.8517 3.39452 16.7079 3.5414C16.5644 3.68891 16.36 3.76382 16.325 3.77536C15.9362 3.8958 15.5451 3.71388 15.1661 3.21302C15.0389 3.04488 14.9625 2.82703 14.8826 2.59951C14.7246 2.14929 14.5534 1.66121 13.9491 1.44544C15.2047 0.683553 16.509 1.53419 16.8441 2.42407C16.9364 2.66894 16.9601 2.88317 16.9347 3.06572ZM18.4625 5.80723C18.5261 6.05525 18.6178 6.21765 18.824 6.38552C19.0303 6.55422 19.3041 6.62031 19.3511 6.62912C19.8687 6.72669 20.3465 6.43504 20.7584 5.73568C20.8965 5.50126 20.9624 5.21055 21.0312 4.90687C21.1677 4.30455 21.3157 3.65121 22.0614 3.2849C20.3362 2.49049 18.7854 3.7759 18.4847 4.96918C18.4021 5.29756 18.4031 5.57642 18.4625 5.80723ZM21.2695 14.4589C21.1353 14.7634 21.1006 15.0024 21.1772 15.3402C21.2538 15.6782 21.4819 15.9655 21.5234 16.0137C21.9758 16.5272 22.6989 16.6105 23.6809 16.2235C24.0101 16.0938 24.3104 15.8486 24.624 15.5924L24.624 15.5924L24.6241 15.5924C25.2461 15.0843 25.9208 14.5333 26.9781 14.7548C25.845 12.5595 23.2268 12.6355 21.9632 13.6179C21.6158 13.8882 21.3936 14.175 21.2695 14.4589ZM23.53 11.1257C23.4637 10.8679 23.4858 10.6834 23.5814 10.4459C23.6704 10.2248 23.8349 9.9994 24.0959 9.7839C25.0452 9.00083 27.056 8.88416 27.9752 10.5462C27.1575 10.3995 26.6512 10.838 26.1843 11.2423C25.9489 11.4462 25.7236 11.6413 25.4734 11.7483C24.7273 12.0675 24.1696 12.0207 23.811 11.6344C23.7776 11.5993 23.5963 11.3838 23.53 11.1257ZM24.9465 7.38347C24.9014 7.57546 24.9067 7.71919 24.9885 7.90804C25.0699 8.09688 25.2344 8.23894 25.2644 8.26391C25.5851 8.51486 26.0165 8.48443 26.5477 8.15081C26.7258 8.03897 26.8744 7.86276 27.0297 7.6787C27.3375 7.31368 27.6714 6.91776 28.313 6.93171C27.4112 5.77347 25.8891 6.10478 25.2596 6.81694C25.0863 7.01229 24.9885 7.20407 24.9465 7.38347ZM16.705 23.5041C16.9975 23.8188 17.1431 24.0945 17.1945 24.5387C17.2457 24.9829 17.0913 25.4286 17.061 25.5031C16.7299 26.3227 15.885 26.7323 14.524 26.6821C14.0675 26.6653 13.5968 26.4951 13.105 26.3173C12.1307 25.9651 11.0739 25.583 9.88138 26.3044C10.3216 23.1476 13.5422 22.1207 15.5005 22.7768C16.0392 22.9573 16.4322 23.2103 16.705 23.5041ZM12.6142 20.9916C12.5741 20.6475 12.461 20.4341 12.234 20.1905C12.0227 19.9639 11.7178 19.7673 11.3002 19.6277C9.78214 19.121 7.2875 19.9192 6.94863 22.3658C7.87214 21.8058 8.69139 22.1013 9.44667 22.3737C9.82794 22.5112 10.1929 22.6428 10.5467 22.6555C11.6016 22.6935 12.2558 22.3754 12.5116 21.7401C12.5349 21.6821 12.6543 21.337 12.6142 20.9916ZM9.24623 16.8641C9.43256 17.0402 9.52992 17.1978 9.57797 17.4598C9.62665 17.7219 9.55174 17.9936 9.53685 18.039C9.37234 18.5392 8.88617 18.8164 8.07498 18.8399C7.80295 18.8478 7.51643 18.7651 7.2171 18.6787C6.62385 18.5076 5.98031 18.3219 5.2996 18.7979C5.43808 16.9038 7.31121 16.1663 8.50156 16.4791C8.82931 16.5651 9.07271 16.6999 9.24623 16.8641ZM6.93142 14.8997C6.88946 14.6982 6.81098 14.5778 6.66368 14.4458C6.52645 14.3229 6.33551 14.2228 6.08078 14.1626C5.15524 13.9437 3.72128 14.5495 3.65162 16.0157C4.16831 15.6349 4.66905 15.7659 5.1307 15.8868C5.36364 15.9477 5.58662 16.0061 5.79668 15.9948C6.42301 15.961 6.79315 15.7377 6.91086 15.3479C6.92135 15.3126 6.9736 15.1013 6.93142 14.8997ZM37.1596 15.3911C37.1837 15.6461 37.2487 15.82 37.4262 16.0187C37.6035 16.2172 37.8635 16.3257 37.9088 16.3419C38.4047 16.5187 38.9219 16.3058 39.4383 15.6794C39.6114 15.4694 39.722 15.1926 39.8375 14.9033C40.0666 14.3298 40.3151 13.7078 41.1087 13.4626C39.5289 12.4082 37.7953 13.4351 37.3127 14.5669C37.1805 14.8781 37.1371 15.1538 37.1596 15.3911ZM39.7559 11.863C39.6355 11.6951 39.5992 11.557 39.6011 11.3594C39.6028 11.1752 39.6575 10.9666 39.7847 10.7381C40.2463 9.90675 41.6608 9.25565 42.7909 10.1925C42.1613 10.3181 41.9206 10.7762 41.6988 11.1985C41.5869 11.4116 41.4797 11.6155 41.3299 11.7631C40.8829 12.2031 40.4683 12.3261 40.1011 12.1502C40.0677 12.1339 39.8764 12.03 39.7559 11.863ZM36.0053 24.8988C35.7711 25.1361 35.6528 25.3464 35.6033 25.6895C35.5546 26.0323 35.6643 26.3817 35.6853 26.4402C35.9245 27.0823 36.5687 27.4191 37.6241 27.4094C37.9779 27.4062 38.3461 27.2846 38.7307 27.1576C39.4934 26.9058 40.3207 26.6326 41.2289 27.2185C40.9574 24.7635 38.4859 23.8971 36.9541 24.3619C36.533 24.4899 36.2227 24.6781 36.0053 24.8988ZM40.1496 23.0674C40.1026 22.8051 40.1383 22.6228 40.2514 22.393C40.3563 22.1792 40.5373 21.9668 40.8137 21.7713C41.8188 21.061 43.8327 21.0944 44.6254 22.8204C43.8211 22.6133 43.2835 23.0129 42.788 23.3812C42.538 23.5671 42.2987 23.745 42.0412 23.833C41.2732 24.0957 40.7207 24.0064 40.3913 23.5955C40.3613 23.558 40.1964 23.3303 40.1496 23.0674ZM43.6648 19.5998C43.5595 19.7675 43.5175 19.9047 43.5327 20.1101C43.5478 20.3156 43.6562 20.5042 43.677 20.5348C43.8982 20.8775 44.3151 20.9902 44.9263 20.8496C45.1313 20.8024 45.3294 20.6849 45.5364 20.5621C45.9468 20.3186 46.3919 20.0544 46.9938 20.2776C46.5221 18.8877 44.9767 18.7012 44.1474 19.167C43.9187 19.295 43.7626 19.4439 43.6648 19.5998Z" fill="#25523B"/>
<path d="M67.5317 25.2485V30.0703C67.5317 31.112 67.6457 31.759 67.8735 32.0112C68.1828 32.3693 68.6507 32.5483 69.2773 32.5483H69.9121V33H62.8198V32.5483H63.4424C64.1423 32.5483 64.6427 32.3205 64.9438 31.8647C65.1066 31.6125 65.188 31.0143 65.188 30.0703V19.377C65.188 18.3353 65.0781 17.6883 64.8584 17.436C64.541 17.078 64.069 16.8989 63.4424 16.8989H62.8198V16.4473H68.8867C70.3678 16.4473 71.5356 16.6019 72.3901 16.9111C73.2446 17.2122 73.9648 17.7249 74.5508 18.4492C75.1367 19.1735 75.4297 20.0321 75.4297 21.0249C75.4297 22.3758 74.9821 23.4744 74.0869 24.3208C73.1999 25.1672 71.9425 25.5903 70.3149 25.5903C69.9162 25.5903 69.4849 25.5618 69.021 25.5049C68.5571 25.4479 68.0607 25.3625 67.5317 25.2485ZM67.5317 24.5527C67.9631 24.6341 68.3455 24.6951 68.6792 24.7358C69.0129 24.7765 69.2977 24.7969 69.5337 24.7969C70.38 24.7969 71.1084 24.4714 71.7188 23.8203C72.3372 23.1611 72.6465 22.3107 72.6465 21.269C72.6465 20.5529 72.5 19.8896 72.207 19.2793C71.9141 18.6608 71.499 18.201 70.9619 17.8999C70.4248 17.5907 69.8145 17.436 69.1309 17.436C68.7158 17.436 68.1828 17.5133 67.5317 17.668V24.5527ZM82.1973 15.6416V30.4731C82.1973 31.173 82.2461 31.6369 82.3438 31.8647C82.4495 32.0926 82.6082 32.2676 82.8198 32.3896C83.0314 32.5036 83.4261 32.5605 84.0039 32.5605V33H78.5229V32.5605C79.0356 32.5605 79.3856 32.5076 79.5728 32.4019C79.7599 32.2961 79.9064 32.1211 80.0122 31.877C80.118 31.6328 80.1709 31.1649 80.1709 30.4731V20.3169C80.1709 19.0555 80.1424 18.2824 80.0854 17.9976C80.0285 17.7046 79.9349 17.5052 79.8047 17.3994C79.6826 17.2936 79.5239 17.2407 79.3286 17.2407C79.117 17.2407 78.8485 17.3058 78.5229 17.436L78.3154 17.0088L81.6479 15.6416H82.1973ZM92.8955 31.3887C91.748 32.2757 91.0278 32.7884 90.7349 32.9268C90.2954 33.1302 89.8275 33.2319 89.3311 33.2319C88.5579 33.2319 87.9191 32.9674 87.4146 32.4385C86.9181 31.9095 86.6699 31.2137 86.6699 30.3511C86.6699 29.8058 86.792 29.3338 87.0361 28.9351C87.3698 28.3817 87.9476 27.8608 88.7695 27.3726C89.5996 26.8843 90.9749 26.2902 92.8955 25.5903V25.1509C92.8955 24.036 92.7165 23.271 92.3584 22.856C92.0085 22.4409 91.4958 22.2334 90.8203 22.2334C90.3076 22.2334 89.9007 22.3717 89.5996 22.6484C89.2904 22.9251 89.1357 23.2425 89.1357 23.6006L89.1602 24.3086C89.1602 24.6829 89.0625 24.9718 88.8672 25.1753C88.68 25.3787 88.4318 25.4805 88.1226 25.4805C87.8215 25.4805 87.5732 25.3747 87.3779 25.1631C87.1908 24.9515 87.0972 24.6626 87.0972 24.2964C87.0972 23.5965 87.4552 22.9536 88.1714 22.3677C88.8875 21.7817 89.8926 21.4888 91.1865 21.4888C92.1794 21.4888 92.9932 21.6556 93.6279 21.9893C94.1081 22.2415 94.4621 22.6362 94.6899 23.1733C94.8364 23.5233 94.9097 24.2394 94.9097 25.3218V29.1182C94.9097 30.1842 94.93 30.8394 94.9707 31.0835C95.0114 31.3195 95.0765 31.4782 95.166 31.5596C95.2637 31.641 95.3735 31.6816 95.4956 31.6816C95.6258 31.6816 95.7397 31.6532 95.8374 31.5962C96.0083 31.4904 96.3379 31.1934 96.8262 30.7051V31.3887C95.9147 32.6094 95.0439 33.2197 94.2139 33.2197C93.8151 33.2197 93.4977 33.0814 93.2617 32.8047C93.0257 32.528 92.9036 32.056 92.8955 31.3887ZM92.8955 30.5952V26.335C91.6667 26.8232 90.8732 27.1691 90.5151 27.3726C89.8722 27.7306 89.4124 28.105 89.1357 28.4956C88.859 28.8862 88.7207 29.3135 88.7207 29.7773C88.7207 30.3633 88.8957 30.8516 89.2456 31.2422C89.5955 31.6247 89.9984 31.8159 90.4541 31.8159C91.0726 31.8159 91.8864 31.409 92.8955 30.5952ZM102.178 23.8569C103.488 22.2782 104.737 21.4888 105.925 21.4888C106.536 21.4888 107.061 21.6434 107.5 21.9526C107.939 22.2537 108.289 22.7542 108.55 23.4541C108.729 23.9424 108.818 24.6911 108.818 25.7002V30.4731C108.818 31.1812 108.875 31.6613 108.989 31.9136C109.079 32.117 109.221 32.2757 109.417 32.3896C109.62 32.5036 109.99 32.5605 110.527 32.5605V33H104.998V32.5605H105.229C105.75 32.5605 106.112 32.4832 106.316 32.3286C106.528 32.1659 106.674 31.9299 106.755 31.6206C106.788 31.4985 106.804 31.116 106.804 30.4731V25.8955C106.804 24.8783 106.67 24.1418 106.401 23.686C106.141 23.2222 105.697 22.9902 105.071 22.9902C104.102 22.9902 103.138 23.5192 102.178 24.5771V30.4731C102.178 31.23 102.222 31.6979 102.312 31.877C102.426 32.113 102.581 32.2879 102.776 32.4019C102.979 32.5076 103.386 32.5605 103.997 32.5605V33H98.4668V32.5605H98.7109C99.2806 32.5605 99.6631 32.4181 99.8584 32.1333C100.062 31.8403 100.164 31.2869 100.164 30.4731V26.3228C100.164 24.98 100.131 24.1621 100.066 23.8691C100.009 23.5762 99.9154 23.3768 99.7852 23.271C99.6631 23.1652 99.4963 23.1123 99.2847 23.1123C99.0568 23.1123 98.7842 23.1733 98.4668 23.2954L98.2837 22.856L101.653 21.4888H102.178V23.8569ZM115.916 18.144V21.8184H118.528V22.6729H115.916V29.9238C115.916 30.6481 116.017 31.1364 116.221 31.3887C116.432 31.641 116.701 31.7671 117.026 31.7671C117.295 31.7671 117.555 31.6857 117.808 31.5229C118.06 31.3521 118.255 31.1038 118.394 30.7783H118.87C118.585 31.5758 118.182 32.1781 117.661 32.585C117.14 32.9837 116.603 33.1831 116.05 33.1831C115.675 33.1831 115.309 33.0814 114.951 32.8779C114.593 32.6663 114.329 32.3693 114.158 31.9868C113.987 31.5962 113.901 30.998 113.901 30.1924V22.6729H112.131V22.27C112.579 22.091 113.035 21.7899 113.499 21.3667C113.971 20.9354 114.39 20.4268 114.756 19.8408C114.943 19.5316 115.203 18.966 115.537 18.144H115.916ZM120.242 21.8184H125.454V22.27H125.198C124.832 22.27 124.555 22.3514 124.368 22.5142C124.189 22.6688 124.099 22.8641 124.099 23.1001C124.099 23.4175 124.233 23.8569 124.502 24.4185L127.224 30.0581L129.727 23.8813C129.865 23.5477 129.934 23.2181 129.934 22.8926C129.934 22.7461 129.906 22.6362 129.849 22.563C129.784 22.4735 129.682 22.4043 129.543 22.3555C129.405 22.2985 129.161 22.27 128.811 22.27V21.8184H132.449V22.27C132.148 22.3026 131.916 22.3677 131.753 22.4653C131.59 22.563 131.411 22.7461 131.216 23.0146C131.143 23.1286 131.004 23.4419 130.801 23.9546L126.248 35.1118C125.808 36.1942 125.23 37.012 124.514 37.5654C123.806 38.1188 123.123 38.3955 122.463 38.3955C121.983 38.3955 121.589 38.2572 121.279 37.9805C120.97 37.7038 120.815 37.3864 120.815 37.0283C120.815 36.6865 120.925 36.4098 121.145 36.1982C121.373 35.9948 121.682 35.8931 122.073 35.8931C122.341 35.8931 122.708 35.9826 123.171 36.1616C123.497 36.2837 123.7 36.3447 123.782 36.3447C124.026 36.3447 124.29 36.2186 124.575 35.9663C124.868 35.714 125.161 35.2257 125.454 34.5015L126.248 32.5605L122.231 24.1255C122.109 23.8732 121.914 23.5599 121.646 23.1855C121.442 22.9007 121.275 22.7095 121.145 22.6118C120.958 22.4816 120.657 22.3677 120.242 22.27V21.8184Z" fill="#25523B"/>
</svg>
